<svg xmlns="http://www.w3.org/2000/svg" version="1.1" xmlns:xlink="http://www.w3.org/1999/xlink" xmlns:svgjs="http://svgjs.dev/svgjs" viewBox="0 0 2.7823095928845505 3.703077231508582"><g transform="matrix(1,0,0,1,0.2669403189032127,2.4641369126053694)"><g><path d=" M 0.32475 0.9089999999999999 Q 0.2025 0.846 0.138 0.73725 Q 0.0735 0.6285 0.0735 0.49499999999999994 Q 0.0735 0.351 0.14775 0.2377499999999999 Q 0.222 0.12449999999999994 0.35175 0.062249999999999917 Q 0.4815 -1.1102230246251565e-16 0.6435 -1.1102230246251565e-16 Q 0.714 -1.1102230246251565e-16 0.7845 0.0119999999999999 Q 0.855 0.02399999999999991 0.8985 0.04499999999999993 Q 0.9105 0.050999999999999934 0.91425 0.05699999999999994 Q 0.918 0.06299999999999994 0.9195 0.0794999999999999 L 0.9375 0.27449999999999997 Q 0.9375 0.2789999999999999 0.93 0.28049999999999997 Q 0.9225 0.2819999999999999 0.9195 0.2759999999999999 Q 0.8745 0.16349999999999998 0.7845 0.10049999999999992 Q 0.6945 0.03749999999999998 0.5730000000000001 0.03749999999999998 Q 0.40800000000000003 0.03749999999999998 0.3195 0.14474999999999993 Q 0.231 0.2519999999999999 0.231 0.4395 Q 0.231 0.5865 0.28500000000000003 0.702 Q 0.339 0.8174999999999999 0.43425 0.8819999999999999 Q 0.5295 0.9465 0.648 0.9465 Q 0.714 0.9465 0.75 0.9329999999999999 Q 0.786 0.9195 0.80325 0.8805 Q 0.8205 0.8414999999999999 0.8205 0.7649999999999999 Q 0.8205 0.6869999999999999 0.8115 0.65625 Q 0.8025 0.6255 0.77175 0.615 Q 0.741 0.6044999999999999 0.6645 0.6044999999999999 Q 0.6555 0.6044999999999999 0.6555 0.5925 Q 0.6555 0.588 0.6577500000000001 0.5842499999999999 Q 0.66 0.5805 0.663 0.5805 Q 0.7875 0.588 0.8625 0.588 Q 0.9375 0.588 1.0185 0.5834999999999999 Q 1.0215 0.5834999999999999 1.02375 0.5872499999999999 Q 1.026 0.591 1.026 0.594 Q 1.026 0.6044999999999999 1.0185 0.6044999999999999 Q 0.9885 0.603 0.9765 0.61425 Q 0.9645 0.6255 0.96075 0.6599999999999999 Q 0.9570000000000001 0.6944999999999999 0.9570000000000001 0.7799999999999999 Q 0.9570000000000001 0.8474999999999999 0.96225 0.876 Q 0.9675 0.9045 0.9675 0.9119999999999999 Q 0.9675 0.9209999999999999 0.96375 0.9232499999999999 Q 0.96 0.9255 0.9495 0.9299999999999999 Q 0.7605000000000001 0.972 0.612 0.972 Q 0.447 0.972 0.32475 0.9089999999999999 M 2.225969970703125 0.945 Q 2.225969970703125 0.954 2.219969970703125 0.954 Q 2.182469970703125 0.954 2.1599699707031252 0.9525 L 2.074469970703125 0.951 L 1.988969970703125 0.9525 Q 1.966469970703125 0.954 1.9289699707031251 0.954 Q 1.9244699707031252 0.954 1.9244699707031252 0.945 Q 1.9244699707031252 0.9359999999999999 1.9289699707031251 0.9359999999999999 Q 1.978469970703125 0.9359999999999999 1.9964699707031253 0.91425 Q 2.014469970703125 0.8925 2.014469970703125 0.8325 L 2.014469970703125 0.609 Q 2.014469970703125 0.5249999999999999 1.9852199707031253 0.48449999999999993 Q 1.955969970703125 0.44399999999999995 1.895969970703125 0.44399999999999995 Q 1.8554699707031252 0.44399999999999995 1.814969970703125 0.46349999999999997 Q 1.7744699707031253 0.48299999999999993 1.744469970703125 0.516 L 1.744469970703125 0.5309999999999999 L 1.744469970703125 0.8325 Q 1.744469970703125 0.8939999999999999 1.7617199707031252 0.9149999999999999 Q 1.778969970703125 0.9359999999999999 1.8299699707031252 0.9359999999999999 Q 1.8344699707031251 0.9359999999999999 1.8344699707031251 0.945 Q 1.8344699707031251 0.954 1.8299699707031252 0.954 Q 1.792469970703125 0.954 1.7699699707031251 0.9525 L 1.6829699707031252 0.951 L 1.5974699707031252 0.9525 Q 1.574969970703125 0.954 1.5374699707031252 0.954 Q 1.532969970703125 0.954 1.532969970703125 0.945 Q 1.532969970703125 0.9359999999999999 1.5374699707031252 0.9359999999999999 Q 1.5884699707031251 0.9359999999999999 1.605719970703125 0.9149999999999999 Q 1.622969970703125 0.8939999999999999 1.622969970703125 0.8325 L 1.622969970703125 0.609 Q 1.622969970703125 0.5249999999999999 1.593719970703125 0.48449999999999993 Q 1.564469970703125 0.44399999999999995 1.5044699707031253 0.44399999999999995 Q 1.4669699707031252 0.44399999999999995 1.427969970703125 0.46199999999999997 Q 1.3889699707031251 0.4799999999999999 1.358969970703125 0.51 L 1.358969970703125 0.8325 Q 1.358969970703125 0.8939999999999999 1.3754699707031253 0.9149999999999999 Q 1.391969970703125 0.9359999999999999 1.4429699707031252 0.9359999999999999 Q 1.447469970703125 0.9359999999999999 1.447469970703125 0.945 Q 1.447469970703125 0.954 1.4429699707031252 0.954 Q 1.405469970703125 0.954 1.3844699707031252 0.9525 L 1.2974699707031252 0.951 L 1.2104699707031252 0.9525 Q 1.189469970703125 0.954 1.1519699707031252 0.954 Q 1.147469970703125 0.954 1.147469970703125 0.945 Q 1.147469970703125 0.9359999999999999 1.1519699707031252 0.9359999999999999 Q 1.2029699707031252 0.9359999999999999 1.2194699707031251 0.9149999999999999 Q 1.235969970703125 0.8939999999999999 1.235969970703125 0.8325 L 1.235969970703125 0.5459999999999999 Q 1.235969970703125 0.49799999999999994 1.224719970703125 0.4754999999999999 Q 1.2134699707031251 0.45299999999999996 1.187969970703125 0.45299999999999996 Q 1.165469970703125 0.45299999999999996 1.112969970703125 0.4754999999999999 L 1.111469970703125 0.4754999999999999 Q 1.105469970703125 0.4754999999999999 1.1024699707031251 0.46799999999999997 Q 1.099469970703125 0.46049999999999996 1.1039699707031252 0.45899999999999996 L 1.300469970703125 0.363 Q 1.3094699707031252 0.36 1.310969970703125 0.36 Q 1.3259699707031252 0.36 1.341719970703125 0.39374999999999993 Q 1.357469970703125 0.4275 1.358969970703125 0.48149999999999993 Q 1.4594699707031251 0.35849999999999993 1.5779699707031252 0.35849999999999993 Q 1.6469699707031251 0.35849999999999993 1.6889699707031252 0.39225 Q 1.730969970703125 0.42599999999999993 1.7414699707031251 0.49049999999999994 Q 1.8479699707031252 0.35849999999999993 1.9694699707031251 0.35849999999999993 Q 2.048969970703125 0.35849999999999993 2.0917199707031253 0.40425 Q 2.134469970703125 0.44999999999999996 2.134469970703125 0.5429999999999999 L 2.134469970703125 0.8325 Q 2.134469970703125 0.8939999999999999 2.151719970703125 0.9149999999999999 Q 2.168969970703125 0.9359999999999999 2.219969970703125 0.9359999999999999 Q 2.225969970703125 0.9359999999999999 2.225969970703125 0.945" fill="#ffc632" fill-rule="nonzero"></path></g><g></g><g clip-path="url(#SvgjsClipPath1001)"><g clip-path="url(#SvgjsClipPath1000f429a6b8-4b9b-47da-889c-845ae2341518)"><path d=" M 1.4206897035583537 -1.9782764417671292 C 1.4206897035583537 -2.0037452154540314 1.400043183106308 -2.0243917359060766 1.3745744094194063 -2.0243917359060766 L 0.5112174358718434 -2.0243917359060766 C 0.42502256666213745 -2.0242930736279647 0.3551724248598399 -1.954442931825666 0.35507376258172796 -1.8682480626159612 L 0.35507376258172796 -0.5769248834728011 C 0.35507376258172796 -0.5514561097858992 0.37572028303377336 -0.5308095893338538 0.4011890567206753 -0.5308095893338538 C 0.4266578304075773 -0.5308095893338538 0.44730435085962267 -0.5514561097858992 0.44730435085962267 -0.5769248834728011 L 0.44730435085962267 -1.8682480626159625 C 0.4473447127506016 -1.9035295528161926 0.4759359456715987 -1.9321207857371938 0.5112174358718353 -1.932161147628182 L 1.3745744094194063 -1.932161147628182 C 1.400043183106308 -1.932161147628182 1.4206897035583537 -1.9528076680802273 1.4206897035583537 -1.9782764417671292 Z" fill="#ffc632" transform="matrix(1,0,0,1,0,0)" fill-rule="nonzero"></path></g><g clip-path="url(#SvgjsClipPath1000f429a6b8-4b9b-47da-889c-845ae2341518)"><path d=" M 1.2478821330979133 -2.1510812995632094 C 1.2478821330979133 -2.1765500732501115 1.2272356126458681 -2.1971965937021567 1.201766838958966 -2.1971965937021567 L 0.33840986541140183 -2.1971965937021567 C 0.252215436705833 -2.197097928517974 0.18236607251185874 -2.127247350818715 0.18226890478564928 -2.0410529204120413 L 0.18226890478564928 -0.749732453933242 C 0.18226890478564928 -0.7242636802463394 0.20291542523769332 -0.7036171597942946 0.2283841989245953 -0.7036171597942946 C 0.25385297261149864 -0.7036171597942946 0.27449949306354265 -0.7242636802463394 0.27449949306354265 -0.749732453933242 L 0.27449949306354265 -2.0410529204120413 C 0.2745383603742291 -2.0763339718065135 0.303128815698396 -2.104925640647458 0.3384098654114059 -2.104966005424262 L 1.201766838958966 -2.104966005424262 C 1.2272356126458681 -2.104966005424262 1.2478821330979133 -2.1256125258763072 1.2478821330979133 -2.1510812995632094 Z" fill="#ffc632" transform="matrix(1,0,0,1,0,0)" fill-rule="nonzero"></path></g><g clip-path="url(#SvgjsClipPath1000f429a6b8-4b9b-47da-889c-845ae2341518)"><path d=" M 1.7201868376759264 -1.1131101210907013 C 1.6947180639890242 -1.1131101210907013 1.674071543536979 -1.0924636006386566 1.674071543536979 -1.0669948269517546 L 1.674071543536979 -0.40614638595447405 C 1.6740326762226974 -0.3708638363978227 1.6454410064000116 -0.3422709530583219 1.6101584585247544 -0.34223058827789377 L 0.6840250063322822 -0.34223058827789377 C 0.648742458457025 -0.34227095305832456 0.620150788634342 -0.37086383639782805 0.6201119213200629 -0.40614638595447405 L 0.6201119213200629 -1.695426928833716 C 0.6201507914756068 -1.7307090379124224 0.6487428972535854 -1.7593011436903967 0.6840250063322862 -1.7593400138459354 L 1.5095945653295226 -1.7593400138459354 C 1.5350633390164243 -1.7593400138459367 1.55570985946847 -1.7799865342979808 1.55570985946847 -1.805455307984884 C 1.55570985946847 -1.8309240816717862 1.5350633390164243 -1.85157060212383 1.5095945653295226 -1.85157060212383 L 0.6840250063322822 -1.85157060212383 C 0.5978288993790576 -1.8514749232653913 0.5279770119006071 -1.7816230357869407 0.5278813330421694 -1.695426928833716 L 0.5278813330421694 -0.40613282263266925 C 0.5279770090568083 -0.31993627520499324 0.5978284605797854 -0.25008361016155733 0.684025006332293 -0.2499864366781943 L 1.610158458524761 -0.2499864366781943 C 1.6963543853925342 -0.2500851018660777 1.7662049640849737 -0.3199368940638183 1.7663021318148737 -0.40613282263266925 L 1.7663021318148737 -1.0669812636299492 C 1.7663057297227542 -1.0792141498981054 1.761448756422204 -1.0909472401682614 1.7528000711733602 -1.0995984691480596 C 1.7441513859245146 -1.1082496981278573 1.7324197244731767 -1.1131101216198074 1.720186837675921 -1.1131101210907013 Z" fill="#ffc632" transform="matrix(1,0,0,1,0,0)" fill-rule="nonzero"></path></g><g clip-path="url(#SvgjsClipPath1000f429a6b8-4b9b-47da-889c-845ae2341518)"><path d=" M 1.9667490394507112 -2.1028935298523703 C 1.8786255111815144 -2.1495467239659938 1.769385346138285 -2.1181476068414913 1.719484257606399 -2.0318217235911695 C 1.719326923073453 -2.0315504571550584 1.7192129911702865 -2.0312629147327796 1.7190556566373418 -2.0309889356323083 C 1.7188983221043976 -2.030714956531836 1.7187301369140084 -2.030470816739335 1.718583653038508 -2.0301968376388624 L 1.6758727526727597 -1.9493594396776495 L 1.6758537640222317 -1.9493296003696767 L 1.6758537640222317 -1.949305186390427 L 1.2097257961944772 -1.0671467361559772 C 1.2096769682359763 -1.0670545055676994 1.209625427613115 -1.0669622749794216 1.209576599654616 -1.0668754697198664 C 1.2092782065748922 -1.0663085228683933 1.2090340667823938 -1.0657171620376706 1.2087628003462805 -1.065139364528753 C 1.208385740000086 -1.06435269186403 1.2079951163320852 -1.0635741571923896 1.2076641712800287 -1.0627630705484161 L 1.2076207686502514 -1.0626572766383329 C 1.2075529520412225 -1.062486378783583 1.2075095494114447 -1.0623127682644715 1.2074417328024172 -1.0621418704097214 C 1.2074037555013626 -1.0620415018283598 1.20737391619339 -1.0619357079182763 1.207333226227974 -1.0618353393369153 C 1.2069073379232789 -1.0607204342844967 1.2064950129403886 -1.0595973912389955 1.2061559298952487 -1.0584417962211607 C 1.2059443420750822 -1.0577310781585492 1.205800570863944 -1.0570149347672144 1.205613397023027 -1.0563015040402413 C 1.2054262231821098 -1.0555880733132688 1.2052281986837494 -1.0548366652852394 1.2050871401369703 -1.054085257257211 C 1.2048891156386095 -1.0530625827930709 1.2047670457423596 -1.052037195664569 1.2046422631817468 -1.0510118085360682 C 1.2045907225588874 -1.0505994835531787 1.2045093426280524 -1.0501980092277339 1.2044686526626363 -1.0497748335874004 L 1.2044523766764699 -1.0496147863900944 C 1.2043709967456362 -1.0487304578083707 1.204357433423831 -1.0478461292266477 1.2043275941158598 -1.0469618006449244 C 1.2043058928009716 -1.046370439814201 1.2042597775068309 -1.0457845043122007 1.2042624901711925 -1.0451931434814774 C 1.2042624901711925 -1.0450358089485325 1.2042624901711925 -1.0448757617512272 1.2042624901711925 -1.0447184272182823 L 1.2067635667121408 -0.7706498088217975 L 0.9398618075577194 -0.7706498088217975 C 0.9211347680820557 -0.7706498088217975 0.905953503043788 -0.7554685437835289 0.905953503043788 -0.7367415043078653 C 0.905953503043788 -0.7180144648322024 0.9211347680820557 -0.7028331997939339 0.9398618075577194 -0.7028331997939339 L 1.2530714600207267 -0.7028331997939339 C 1.257693196417796 -0.7028303992871607 1.2622662687348902 -0.7037767750442814 1.266507286601326 -0.7056136807640763 C 1.2708517646887625 -0.7069349745069113 1.2749770931426423 -0.7088911462089509 1.278749540863036 -0.7114187824968614 L 1.5244599660284308 -0.8761236245106538 C 1.5244843800076806 -0.8761399004968202 1.5245060813225702 -0.8761616018117091 1.5245332079661815 -0.8761778777978757 C 1.5257376309425164 -0.8769916771062098 1.5268986512890734 -0.8778597297017665 1.5280271196632964 -0.8787847482489073 L 1.5283553520509927 -0.8790560146850181 C 1.5284774219472426 -0.8791563832663798 1.5285886411860474 -0.8792676025051849 1.528707998417937 -0.8793679710865467 C 1.529600464992745 -0.8801302297720193 1.5304712302526617 -0.8809277530941877 1.5313094435402457 -0.8817632537174107 C 1.5314667780731899 -0.8819205882503551 1.531634963263579 -0.8820724974545777 1.531789585132163 -0.8822325446518835 C 1.5327118910149422 -0.8831765518495516 1.5335953153752122 -0.8841657701199039 1.5344398582129712 -0.885200199462943 C 1.5347111246490832 -0.8855202938575539 1.5349444137841397 -0.8858485262452496 1.5351966915697228 -0.886174045968583 C 1.5357392244419446 -0.8868956146886395 1.5362817573141694 -0.8876361720592232 1.536824290186391 -0.8883957180803357 C 1.5369436474182794 -0.8885747539281694 1.5370955566225022 -0.888742939118558 1.5372067758613084 -0.8889246876307526 C 1.5372230518474752 -0.8889518142743638 1.5372474658267246 -0.8889762282536136 1.5372637418128927 -0.8890033548972247 C 1.5374048003596705 -0.889217655381753 1.5375350082490034 -0.8894428065237254 1.5376679288026982 -0.8896598196726146 C 1.5381697717095038 -0.8904464923373376 1.5386417753083381 -0.8912602916456718 1.5391002155853664 -0.8920876542758123 C 1.539254837453949 -0.8923589207119234 1.5394311606374211 -0.8926301871480349 1.5395776445129221 -0.8929014535841466 C 1.5396237598070601 -0.8929882588437019 1.5396644497724776 -0.893077776767619 1.539710565066617 -0.8931727200202575 L 2.0035463315092312 -1.774115896620927 C 2.004213646942066 -1.7751738357217621 2.004853835731288 -1.776256188801847 2.0054451965620106 -1.777371093854265 C 2.005884648188511 -1.7782147324705722 2.0062372945554556 -1.7790773597374057 2.006619780230373 -1.7799345616755176 L 2.047236503709341 -1.8570745981125323 C 2.0473368722907015 -1.8572644846178108 2.047407401564092 -1.8574652217805316 2.0475077701454523 -1.8576578209501717 C 2.0477030819794524 -1.858040306625089 2.047917382463981 -1.8584065163138401 2.0481018436405365 -1.8587971399818406 C 2.091037069489508 -1.94880070865986 2.0550950442233646 -2.056643562996259 1.9667490394507112 -2.1028935298523703 Z M 1.9237804359706558 -2.021283022548239 C 1.9680680581724395 -1.9980899639235539 1.9862341634428562 -1.944132135183276 1.9649912329447083 -1.8988767559173074 L 1.9450097472607384 -1.8609265815053149 L 1.7791710115439998 -1.9474605746248688 L 1.7995159942523595 -1.9859804085526944 C 1.8248022716484709 -2.029123597755155 1.8795883376634395 -2.0446879161886256 1.9237804359706558 -2.0212830225482405 Z M 1.4716172642739185 -0.9618139790138995 C 1.4068019119812405 -0.9686511899316359 1.34709426685062 -1.0001400068946658 1.3048453720169588 -1.049766695594316 L 1.7360911888251422 -1.8659043206079589 L 1.902049281773769 -1.7793160742011824 Z M 1.2975293162350314 -0.9321130169240561 C 1.310016665672558 -0.923194384701693 1.323087522441825 -0.9151224079115761 1.3366540743153865 -0.9079513154596086 C 1.350191257310609 -0.9008280446813868 1.3641890014612135 -0.8946166929781469 1.3785538880371604 -0.889358713928531 L 1.2984109321523931 -0.835647959578462 Z" fill="#ffc632" transform="matrix(1,0,0,1,0,0)" fill-rule="nonzero"></path></g></g></g><defs><clipPath id="SvgjsClipPath1001"><path d=" M 0.18226890478564928 -2.1971965937021567 h 1.8838911455068266 v 1.947196593702157 h -1.8838911455068266 Z"></path></clipPath><clipPath id="SvgjsClipPath1000f429a6b8-4b9b-47da-889c-845ae2341518"><path d=" M 0.18226890478564928 -2.1971965937021567 L 2.066160050292476 -2.1971965937021567 L 2.066160050292476 -0.24999999999999978 L 0.18226890478564928 -0.24999999999999978 Z"></path></clipPath></defs></svg>